<svg xmlns="http://www.w3.org/2000/svg" xmlns:xlink="http://www.w3.org/1999/xlink" width="25.197" height="25.195" viewBox="0 0 25.197 25.195">
  <defs>
    <clipPath id="clip-path">
      <rect width="25.197" height="25.195" fill="none"/>
    </clipPath>
  </defs>
  <g id="moon" clip-path="url(#clip-path)">
    <path id="Path_27" data-name="Path 27" d="M15.089,7a.875.875,0,0,0-.265.055C9.854,8.9,7,13.722,7,19.221A12.979,12.979,0,0,0,19.96,32.194c5.5,0,10.335-2.858,12.176-7.828a.879.879,0,0,0-1.153-1.126,11.029,11.029,0,0,1-4.129.778c-6.071,0-11.682-5.62-11.682-11.691A11.023,11.023,0,0,1,15.94,8.2.879.879,0,0,0,15.089,7ZM13.734,9.535a13.127,13.127,0,0,0-.32,2.793,13.841,13.841,0,0,0,13.44,13.449,13.126,13.126,0,0,0,2.792-.33c-1.926,3.181-5.486,4.989-9.686,4.989A11.2,11.2,0,0,1,8.754,19.221C8.754,15.022,10.553,11.462,13.734,9.535Z" transform="translate(-6.996 -6.999)" fill="#4b4b4b"/>
  </g>
</svg>
